<?xml version="1.0" encoding="utf-8"?>
<!-- Generator: Adobe Illustrator 24.1.1, SVG Export Plug-In . SVG Version: 6.00 Build 0)  -->
<svg version="1.1" id="Capa_1" xmlns="http://www.w3.org/2000/svg" xmlns:xlink="http://www.w3.org/1999/xlink" x="0px" y="0px"
	 viewBox="0 0 448.1 448.1" style="enable-background:new 0 0 448.1 448.1;" xml:space="preserve">
<style type="text/css">
	.st0{fill:#6B6B6B;}
	.st1{fill:#EFEFEF;}
	.st2{clip-path:url(#SVGID_2_);}
	.st3{font-family:'Roboto-Regular';}
	.st4{font-size:39px;}
</style>
<path class="st0" d="M366,421.8H82.1c-30.8,0-55.8-25-55.8-55.8V82.1c0-30.8,25-55.8,55.8-55.8H366c30.8,0,55.8,25,55.8,55.8V366
	C421.8,396.8,396.8,421.8,366,421.8z"/>
<g>
	<g>
		<path class="st1" d="M287.2,180.9c0-2.3-1.4-4.5-3.4-5.5c-2.2-1.1-4.7-0.7-6.5,0.7l-54.4,43.4l64.4,64.4V180.9z"/>
		<g>
			<path class="st1" d="M204.4,312.8c-6.9,6.9-9.2,9.2-15.4,15.4c-2.3,2.3-5.2,5.2-9.1,9.1c-7.2,7.2-18.5,7.6-25.2,1l-15.9-15.9
				c-4.4-4.4-5.9-11-3.9-17.3l12.6-40l1.2,0.1c0,0,0.1,0,0.1,0c2.3,0.1,4.4,1.1,5.9,2.8c1.5,1.8,2.2,4.1,2,6.4l-0.9,8.8
				c-0.1,0.8,0.3,1.5,1,1.8c0.7,0.3,1.5,0.2,2.1-0.4l33.3-33.2c2.2-2.2,5.6-2.3,7.6-0.3s1.9,5.4-0.3,7.6l-20,20
				c-0.1,0.1-0.1,0.1-0.2,0.2c0,0-0.1,0.1-0.1,0.1l-8.6,8.6c-0.7,0.7-0.7,1.9,0,2.6s1.9,0.7,2.6,0l8.8-8.8c2.1-2.1,5.3-2.1,7.3-0.2
				l0.1,0.1c2,2,1.9,5.4-0.3,7.6l-7.8,7.8c-0.7,0.7-0.7,1.9,0,2.6s1.9,0.7,2.6,0l6.2-6.2c2.2-2.2,5.5-2.4,7.5-0.4
				c2,2,1.8,5.3-0.4,7.5l-5.8,5.8c-0.7,0.7-0.7,1.9,0,2.6s1.9,0.7,2.6,0l3.1-3.1c2.2-2.2,5.5-2.2,7.5-0.2l0.1,0.1
				C206.7,307.3,206.6,310.7,204.4,312.8z"/>
			<path class="st1" d="M204.6,305.2c-2-2-5.4-1.9-7.5,0.2l-3.1,3.1c-0.7,0.7-1.9,0.7-2.6,0s-0.7-1.9,0-2.6l5.8-5.8
				c2.2-2.2,2.4-5.5,0.4-7.5c-2-2-5.3-1.8-7.5,0.4l-6.2,6.2c-0.7,0.7-1.9,0.7-2.6,0s-0.7-1.9,0-2.6l7.8-7.8c2.2-2.2,2.3-5.6,0.3-7.6
				l-0.1-0.1c-1.9-1.9-5.2-1.9-7.3,0.2l-8.8,8.8c-0.7,0.7-1.9,0.7-2.6,0s-0.7-1.9,0-2.6l8.6-8.6c0,0,0.1-0.1,0.1-0.1
				c0.1-0.1,0.1-0.1,0.2-0.2l20-20c2.2-2.2,2.3-5.6,0.3-7.6s-5.4-1.9-7.6,0.3L159,284.6c-0.5,0.5-1.4,0.7-2.1,0.4
				c-0.7-0.3-1.1-1.1-1-1.8l0.9-8.8c0.3-2.3-0.4-4.6-2-6.4c-1.5-1.7-3.6-2.7-5.9-2.8c0,0-0.1,0-0.1,0l-1.2-0.1l-12.6,40
				c-2,6.3-0.5,12.9,3.9,17.3l15.9,15.9c6.7,6.7,18,6.2,25.2-1c3.9-3.9,6.8-6.7,9.1-9.1c6.2-6.2,8.6-8.5,15.4-15.4
				c2.2-2.2,2.3-5.5,0.3-7.5L204.6,305.2z"/>
			<path class="st1" d="M185,245.2c0.7,0.7,1.9,0.7,2.6,0c5-4.9,13-4.9,17.9,0c4.9,4.9,5,13,0,17.9c-0.7,0.7-0.7,1.9,0,2.6
				s1.9,0.7,2.6,0c6.4-6.4,6.3-16.7,0-23.1c-6.4-6.4-16.7-6.4-23.1,0C184.3,243.4,184.3,244.5,185,245.2z"/>
		</g>
		<path class="st1" d="M322.2,336.3L162.6,176.6c-2.4-2.4-6.3-2.4-8.7,0c-2.4,2.4-2.4,6.3,0,8.7l38.6,38.6h-3.6
			c-3.8,0-7.1,1.7-9.3,4.4c-1.8,2.1-2.9,4.9-2.9,7.9v49.1c0,6.8,5.5,12.3,12.3,12.3h28.5l59.8,47.8c1.1,0.9,2.5,1.4,3.8,1.4
			c0.9,0,1.8-0.2,2.7-0.6c2.1-1,3.4-3.2,3.4-5.5v-22l26.4,26.4c1.2,1.2,2.8,1.8,4.3,1.8s3.1-0.6,4.3-1.8
			C324.6,342.5,324.6,338.7,322.2,336.3z"/>
	</g>
	<g>
		<defs>
			<path id="SVGID_1_" d="M322.2,336.2L162.6,176.6c-2.4-2.4-6.3-2.4-8.7,0c-2.4,2.4-2.4,6.3,0,8.7l38.6,38.6h-3.6
				c-3.8,0-7.1,1.7-9.3,4.4c-1.8,2.1-2.9,4.9-2.9,7.9v49.1c0,6.8,5.5,12.3,12.3,12.3h28.5l59.8,47.8c1.1,0.9,2.5,1.4,3.8,1.4
				c0.9,0,1.8-0.2,2.7-0.6c2.1-1,3.4-3.2,3.4-5.5v-22l26.4,26.4c1.2,1.2,2.8,1.8,4.3,1.8c1.6,0,3.1-0.6,4.3-1.8
				C324.6,342.5,324.6,338.6,322.2,336.2z"/>
		</defs>
		<clipPath id="SVGID_2_">
			<use xlink:href="#SVGID_1_"  style="overflow:visible;"/>
		</clipPath>
		<g class="st2">
			<path class="st0" d="M207.3,302.7l-0.1-0.1c-1.5-1.5-3.4-2.4-5.5-2.5c1.6-3.4,1.1-7.4-1.6-10c-1.6-1.6-3.9-2.5-6.2-2.5
				c1.1-3.1,0.4-6.6-2-9l-0.1-0.1c-1.3-1.3-2.9-2.1-4.7-2.4l14.9-14.9c3.6-3.6,3.7-9.4,0.3-12.8c-3.4-3.4-9.1-3.3-12.8,0.3
				L160,278.4l0.4-3.7c0.4-3.3-0.7-6.6-2.8-9.1c-2.1-2.5-5.2-3.9-8.4-4l-2.7-0.3c-0.9-0.1-1.7,0.5-1.9,1.3L131.4,304
				c-2.4,7.6-0.6,15.6,4.8,21l16,16l0,0c8.1,8.1,21.7,7.6,30.4-1c3.9-3.9,6.7-6.8,9.1-9.1c6.3-6.2,8.6-8.5,15.4-15.4
				C210.6,311.8,210.7,306.1,207.3,302.7z M189,328.3c-2.3,2.3-5.2,5.2-9.1,9.1c-7.2,7.2-18.5,7.6-25.2,1l-15.9-15.9
				c-4.4-4.4-5.9-11-3.9-17.3l12.6-40l1.2,0.1c0,0,0.1,0,0.1,0c2.3,0.1,4.4,1.1,5.9,2.8c1.5,1.8,2.2,4.1,2,6.4l-0.9,8.8
				c-0.1,0.8,0.3,1.5,1,1.8c0.7,0.3,1.5,0.2,2.1-0.4l33.3-33.2c2.2-2.2,5.6-2.3,7.6-0.3s1.9,5.4-0.3,7.6l-20,20
				c-0.1,0.1-0.1,0.1-0.2,0.2c0,0-0.1,0.1-0.1,0.1l-8.6,8.6c-0.7,0.7-0.7,1.9,0,2.6s1.9,0.7,2.6,0l8.8-8.8c2.1-2.1,5.3-2.1,7.3-0.2
				l0.1,0.1c2,2,1.9,5.4-0.3,7.6l-7.8,7.8c-0.7,0.7-0.7,1.9,0,2.6s1.9,0.7,2.6,0l6.2-6.2c2.2-2.2,5.5-2.4,7.5-0.4
				c2,2,1.8,5.3-0.4,7.5l-5.8,5.8c-0.7,0.7-0.7,1.9,0,2.6s1.9,0.7,2.6,0l3.1-3.1c2.2-2.2,5.5-2.2,7.5-0.2l0.1,0.1
				c2,2,1.9,5.3-0.3,7.5C197.6,319.7,195.3,322,189,328.3z"/>
			<path class="st0" d="M185,245.2c0.7,0.7,1.9,0.7,2.6,0c5-4.9,13-4.9,17.9,0c4.9,4.9,5,13,0,17.9c-0.7,0.7-0.7,1.9,0,2.6
				s1.9,0.7,2.6,0c6.4-6.4,6.3-16.7,0-23.1c-6.4-6.4-16.7-6.4-23.1,0C184.3,243.4,184.3,244.5,185,245.2z"/>
		</g>
	</g>
</g>
<text transform="matrix(1 0 0 1 85.1281 120.3828)" class="st1 st3 st4">Click to Unmute</text>
</svg>
