<svg xmlns="http://www.w3.org/2000/svg" xmlns:xlink="http://www.w3.org/1999/xlink" viewBox="0 0 395.46 395.46"><defs><style>.cls-1{fill:none;}.cls-2{fill:#6b6b6b;}.cls-3,.cls-5{fill:#efefef;}.cls-4{clip-path:url(#clip-path);}.cls-5{font-size:39px;font-family:Roboto-Regular, Roboto;}</style><clipPath id="clip-path"><path class="cls-1" d="M295.92,309.93,136.27,150.28a6.14,6.14,0,0,0-8.68,8.68l38.63,38.65h-3.6a12.48,12.48,0,0,0-12.28,12.28V259a12.31,12.31,0,0,0,12.28,12.28h28.49l59.81,47.78a6.28,6.28,0,0,0,3.81,1.35,7.16,7.16,0,0,0,2.7-.62,6.13,6.13,0,0,0,3.44-5.52v-22l26.35,26.35a6.14,6.14,0,1,0,8.7-8.68Z"/></clipPath></defs><g id="Layer_2" data-name="Layer 2"><g id="Capa_1" data-name="Capa 1"><rect class="cls-2" width="395.46" height="395.46" rx="55.78"/><path class="cls-3" d="M260.87,154.64a6.16,6.16,0,0,0-3.44-5.53,6,6,0,0,0-6.51.74l-54.4,43.35,64.35,64.35Z"/><path class="cls-3" d="M178.12,286.52c-6.86,6.89-9.16,9.19-15.41,15.42l-9.1,9.08c-7.22,7.21-18.53,7.64-25.22,1l-15.91-15.91a17.06,17.06,0,0,1-3.88-17.27l12.63-40,1.24.11h.1a8.15,8.15,0,0,1,5.87,2.77,8.31,8.31,0,0,1,1.95,6.35l-.86,8.8a1.83,1.83,0,0,0,3.12,1.48l33.27-33.23a5.16,5.16,0,1,1,7.27,7.27l-20.05,20.05-.21.21-.09.09-8.57,8.57a1.83,1.83,0,0,0,2.59,2.6l8.83-8.83a5.15,5.15,0,0,1,7.28-.21l.12.12a5.36,5.36,0,0,1-.27,7.55L155,270.31a1.84,1.84,0,1,0,2.6,2.6l6.15-6.16a5.07,5.07,0,1,1,7.13,7.14l-5.8,5.8a1.83,1.83,0,0,0,2.59,2.6l3.15-3.15a5.32,5.32,0,0,1,7.53-.23l.11.1A5.32,5.32,0,0,1,178.12,286.52Z"/><path class="cls-3" d="M178.32,278.91a5.32,5.32,0,0,0-7.53.23l-3.15,3.15a1.83,1.83,0,0,1-2.59-2.6l5.8-5.8a5.07,5.07,0,1,0-7.13-7.14l-6.15,6.16a1.84,1.84,0,1,1-2.6-2.6l7.85-7.84a5.36,5.36,0,0,0,.27-7.55l-.12-.12a5.15,5.15,0,0,0-7.28.21l-8.83,8.83a1.83,1.83,0,0,1-2.59-2.6l8.57-8.57.09-.09.21-.21,20.05-20.05a5.16,5.16,0,1,0-7.27-7.27l-33.27,33.23a1.83,1.83,0,0,1-3.12-1.48l.86-8.8a8.31,8.31,0,0,0-1.95-6.35,8.15,8.15,0,0,0-5.87-2.77h-.1l-1.24-.11-12.63,40a17.06,17.06,0,0,0,3.88,17.27L128.39,312c6.69,6.68,18,6.25,25.22-1l9.1-9.08c6.25-6.23,8.55-8.53,15.41-15.42a5.32,5.32,0,0,0,.31-7.51Z"/><path class="cls-3" d="M158.66,218.92a1.83,1.83,0,0,0,2.6,0,12.71,12.71,0,0,1,18,18,1.83,1.83,0,1,0,2.59,2.6,16.38,16.38,0,0,0-23.16-23.16A1.84,1.84,0,0,0,158.66,218.92Z"/><path class="cls-3" d="M295.92,309.94,136.27,150.29a6.14,6.14,0,0,0-8.68,8.68l38.63,38.65h-3.6a12.48,12.48,0,0,0-12.28,12.28V259a12.32,12.32,0,0,0,12.28,12.28h28.49l59.81,47.77a6.28,6.28,0,0,0,3.81,1.35,7.14,7.14,0,0,0,2.7-.61,6.16,6.16,0,0,0,3.44-5.53v-22l26.35,26.36a6.15,6.15,0,1,0,8.7-8.69Z"/><g class="cls-4"><path class="cls-2" d="M181,276.42l-.11-.11a8.38,8.38,0,0,0-5.53-2.48,8.85,8.85,0,0,0-1.57-10,8.5,8.5,0,0,0-6.15-2.45,8.7,8.7,0,0,0-2-9l-.11-.12a8,8,0,0,0-4.72-2.36l14.93-14.93a8.8,8.8,0,1,0-12.43-12.44l-29.66,29.6.36-3.72a12,12,0,0,0-2.84-9.11,11.76,11.76,0,0,0-8.44-4L120.1,235a1.84,1.84,0,0,0-1.92,1.27L105.1,277.69a20.68,20.68,0,0,0,4.79,21l16,16h0c8.1,8.1,21.71,7.64,30.35-1,3.87-3.86,6.74-6.75,9.07-9.08,6.26-6.24,8.55-8.55,15.42-15.45A9,9,0,0,0,181,276.42Zm-18.31,25.52-9.1,9.08c-7.22,7.21-18.53,7.64-25.22,1l-15.91-15.91a17.06,17.06,0,0,1-3.88-17.27l12.63-40,1.24.11h.1a8.15,8.15,0,0,1,5.87,2.77,8.31,8.31,0,0,1,1.95,6.35l-.86,8.8a1.83,1.83,0,0,0,3.12,1.48l33.27-33.23a5.16,5.16,0,1,1,7.27,7.27l-20.05,20.05-.21.21-.09.09-8.57,8.57a1.83,1.83,0,0,0,2.59,2.6l8.83-8.83a5.15,5.15,0,0,1,7.28-.21l.12.12a5.36,5.36,0,0,1-.27,7.55L155,270.31a1.84,1.84,0,1,0,2.6,2.6l6.15-6.16a5.07,5.07,0,1,1,7.13,7.14l-5.8,5.8a1.83,1.83,0,0,0,2.59,2.6l3.15-3.15a5.32,5.32,0,0,1,7.53-.23l.11.1a5.32,5.32,0,0,1-.31,7.51C171.26,293.41,169,295.71,162.71,301.94Z"/><path class="cls-2" d="M158.66,218.92a1.83,1.83,0,0,0,2.6,0,12.71,12.71,0,0,1,18,18,1.83,1.83,0,1,0,2.59,2.6,16.38,16.38,0,0,0-23.16-23.16A1.84,1.84,0,0,0,158.66,218.92Z"/></g><text class="cls-5" transform="translate(58.82 94.07)">Click to Unmute</text></g></g></svg>