<?xml version="1.0" encoding="utf-8"?>
<!-- Generator: Adobe Illustrator 23.0.2, SVG Export Plug-In . SVG Version: 6.00 Build 0)  -->
<svg version="1.1" id="Capa_1" xmlns="http://www.w3.org/2000/svg" xmlns:xlink="http://www.w3.org/1999/xlink" x="0px" y="0px"
	 viewBox="0 0 191.3 191.3" style="enable-background:new 0 0 191.3 191.3;" xml:space="preserve">
<style type="text/css">
	.st0{fill:#FFFFFF;}
</style>
<path class="st0" d="M162.9,66.6c-2.8-1.8-6.5-0.9-8.3,1.9s-0.9,6.5,1.9,8.3c6.5,4.1,10.4,11.1,10.4,18.8s-3.9,14.8-10.4,18.8
	l-98.4,61.4c-6.9,4.3-15.4,4.5-22.5,0.6c-7.2-4-11.4-11.2-11.4-19.4V34.3c0-8.2,4.3-15.4,11.4-19.4c7.2-4,15.6-3.8,22.5,0.6
	l57.3,35.7c2.8,1.8,6.5,0.9,8.3-1.9c1.8-2.8,0.9-6.5-1.9-8.3L64.5,5.2c-10.7-6.7-23.7-7-34.7-0.9c-11,6.1-17.6,17.3-17.6,29.9V157
	c0,12.6,6.6,23.8,17.6,29.9c5.3,2.9,10.9,4.4,16.6,4.4c6.2,0,12.5-1.8,18.1-5.2l98.4-61.4c10.1-6.3,16.1-17.1,16.1-29
	S173,72.9,162.9,66.6z"/>
</svg>
