<?xml version="1.0" encoding="utf-8"?>
<!-- Generator: Adobe Illustrator 23.0.2, SVG Export Plug-In . SVG Version: 6.00 Build 0)  -->
<svg version="1.1" id="Capa_1" xmlns="http://www.w3.org/2000/svg" xmlns:xlink="http://www.w3.org/1999/xlink" x="0px" y="0px"
	 viewBox="0 0 347.2 347.2" style="enable-background:new 0 0 347.2 347.2;" xml:space="preserve">
<style type="text/css">
	.st0{fill:#FFFFFF;}
</style>
<g>
	<g>
		<path class="st0" d="M210.1,0c-4.9,0-9.2,1.8-12.8,5.4l-95.1,95.1H27.4c-5,0-9.2,1.8-12.9,5.4c-3.6,3.6-5.4,7.9-5.4,12.8v109.6
			c0,4.9,1.8,9.2,5.4,12.8c3.6,3.6,7.9,5.4,12.9,5.4h74.8l95.1,95.1c3.6,3.6,7.9,5.4,12.8,5.4s9.2-1.8,12.9-5.4
			c3.6-3.6,5.4-7.9,5.4-12.8V18.3c0-4.9-1.8-9.2-5.4-12.9C219.4,1.8,215.1,0,210.1,0z"/>
		<path class="st0" d="M325.9,133c-8.1-12.6-18.8-21.4-32.1-26.6c-1.9-0.9-4.3-1.4-7.1-1.4c-4.9,0-9.2,1.8-12.8,5.3
			c-3.6,3.5-5.4,7.9-5.4,13c0,4,1.1,7.4,3.4,10.1c2.3,2.8,5,5.1,8.3,7.1c3.2,2,6.5,4.2,9.7,6.6c3.2,2.4,6,5.8,8.3,10.1
			c2.3,4.4,3.4,9.8,3.4,16.3c0,6.5-1.1,11.9-3.4,16.3c-2.3,4.4-5,7.8-8.3,10.1c-3.2,2.4-6.5,4.6-9.7,6.6c-3.2,2-6,4.4-8.3,7.1
			c-2.3,2.8-3.4,6.1-3.4,10.1c0,5.1,1.8,9.5,5.4,13c3.6,3.5,7.9,5.3,12.8,5.3c2.9,0,5.2-0.5,7.1-1.4c13.3-5.3,24-14.2,32.1-26.7
			c8.1-12.5,12.1-25.9,12.1-40.4C338,159.1,334,145.6,325.9,133z"/>
	</g>
</g>
</svg>
