<?xml version="1.0" encoding="utf-8"?>
<!-- Generator: Adobe Illustrator 23.0.2, SVG Export Plug-In . SVG Version: 6.00 Build 0)  -->
<svg version="1.1" id="Layer_1" xmlns="http://www.w3.org/2000/svg" xmlns:xlink="http://www.w3.org/1999/xlink" x="0px" y="0px"
	 viewBox="0 0 469.3 469.3" style="enable-background:new 0 0 469.3 469.3;" xml:space="preserve">
<style type="text/css">
	.st0{fill:#FFFFFF;}
</style>
<g>
	<g>
		<g>
			<path class="st0" d="M206.9,43.5c-3.9-1.7-8.4-0.9-11.5,2L85.5,149.3H10.7C4.8,149.3,0,154.1,0,160v149.3
				c0,5.9,4.8,10.7,10.7,10.7h74.8l109.9,103.8c2,1.9,4.7,2.9,7.3,2.9c1.4,0,2.9-0.3,4.2-0.9c3.9-1.7,6.4-5.5,6.4-9.8V53.3
				C213.3,49.1,210.8,45.2,206.9,43.5z M192,391.3l-94.9-89.7c-2-1.9-4.6-2.9-7.3-2.9H21.3v-128h68.4c2.7,0,5.3-1,7.3-2.9L192,78.1
				V391.3z"/>
			<path class="st0" d="M372.1,44.7c-4.8-3.5-11.5-2.4-14.9,2.4c-3.5,4.8-2.4,11.4,2.4,14.9c55.4,40.1,88.5,104.7,88.5,172.7
				s-33.1,132.6-88.5,172.7c-4.8,3.5-5.8,10.1-2.4,14.9c2.1,2.9,5.3,4.4,8.6,4.4c2.2,0,4.4-0.7,6.3-2c60.9-44.1,97.3-115.1,97.3-190
				C469.3,159.8,433,88.8,372.1,44.7z"/>
			<path class="st0" d="M314,108.3c-4.9-3.1-11.6-1.6-14.7,3.4c-3.1,5-1.6,11.6,3.4,14.7c37.6,23.6,60,64.1,60,108.3
				s-22.4,84.7-60,108.3c-5,3.1-6.5,9.7-3.4,14.7c2,3.2,5.5,5,9,5c1.9,0,3.9-0.5,5.7-1.6c43.8-27.6,70-74.8,70-126.4
				S357.8,135.9,314,108.3z"/>
			<path class="st0" d="M272.8,183.4c-4.7-3.5-11.4-2.5-14.9,2.2c-3.5,4.7-2.5,11.4,2.2,14.9c11,8.2,17.3,20.6,17.3,34.1
				c0,13.5-6.3,25.9-17.3,34.1c-4.7,3.5-5.7,10.2-2.2,14.9c2.1,2.8,5.3,4.3,8.6,4.3c2.2,0,4.4-0.7,6.4-2.1
				c16.5-12.3,25.9-30.9,25.9-51.2S289.2,195.7,272.8,183.4z"/>
		</g>
	</g>
</g>
</svg>
